<?xml version="1.0" encoding="UTF-8"?>
<svg width="47px" height="49px" viewBox="0 0 47 49" version="1.1" xmlns="http://www.w3.org/2000/svg" xmlns:xlink="http://www.w3.org/1999/xlink">
    <!-- Generator: Sketch 61 (89581) - https://sketch.com -->
    <title>call</title>
    <desc>Created with Sketch.</desc>
    <g id="Page-1" stroke="none" stroke-width="1" fill="none" fill-rule="evenodd">
        <g id="call" transform="translate(1.000000, 1.000000)" stroke="#EF2221">
            <path d="M18.4370897,41.1394358 C13.3120818,37.6303213 10.566654,34.1057764 10.2008063,30.5658013 C10.0139566,28.7578269 10.2008063,25.2683812 10.2008063,22.4906303 C10.2008063,18.859323 15.3856186,12.9986447 18.2512115,11.9539519" id="Path-12"></path>
            <path d="M16.5463334,8.54266161 C19.6492307,15.8589267 24.5464469,21.8147855 38.1009552,25.220081" id="Path-13"></path>
            <path d="M36.2907312,24.8410487 C36.9568169,29.0059991 36.8745861,33.8808187 32.0505351,39.2442745" id="Path-14"></path>
            <path d="M40.748014,25.3804649 C40.748014,21.3562264 40.748014,17.8313631 40.748014,14.8058749 C40.748014,10.5749505 36.7097219,0.203951928 23.6962092,0.203951928 C10.6826966,0.203951928 6.00743277,10.0378021 6.00743277,14.8058749 C6.00743277,20.2394613 6.00743277,25.8587127 6.00743277,31.6636293 L2.82894095,31.6636293 C1.1335331,31.6636293 0.285829175,31.0775037 0.285829175,29.9052524 C0.285829175,26.8288131 0.285829175,26.2526109 0.285829175,22.9562544 C0.285829175,21.5701681 1.1335331,20.877125 2.82894095,20.877125 L5.39115233,20.877125" id="Path-15"></path>
            <path d="M40.748014,21.0507261 L42.9579923,21.0507261 C44.2577827,21.1551589 44.9076779,21.8444362 44.9076779,23.118558 C44.9076779,24.3926799 44.9076779,26.6870619 44.9076779,30.001704 C44.8804988,31.1096542 44.3694263,31.6636293 43.3744604,31.6636293 C42.3794946,31.6636293 41.5040125,31.6636293 40.748014,31.6636293" id="Path-16"></path>
            <path d="M40.748014,28.6313713 L40.748014,34.0348651 C39.0120599,40.436772 35.2305473,43.8157149 29.4034762,44.1716939" id="Path-17"></path>
            <rect id="Rectangle" x="21.840451" y="41.8975003" width="7.56302521" height="4.92741935" rx="2.46370968"></rect>
        </g>
    </g>
</svg>