<?xml version="1.0" encoding="UTF-8"?>
<svg xmlns="http://www.w3.org/2000/svg" xmlns:xlink="http://www.w3.org/1999/xlink" width="147pt" height="156pt" viewBox="0 0 147 156" version="1.1">
<g id="surface1">
<path style=" stroke:none;fill-rule:evenodd;fill:rgb(13.333333%,24.313725%,32.156863%);fill-opacity:1;" d="M 3.675781 16.164062 L 15.109375 16.164062 C 16.910156 16.164062 18.375 17.613281 18.375 19.398438 C 18.375 21.183594 16.910156 22.632812 15.109375 22.632812 L 3.675781 22.632812 C 1.871094 22.632812 0.40625 21.183594 0.40625 19.398438 C 0.40625 17.613281 1.871094 16.164062 3.675781 16.164062 Z M 3.675781 16.164062 "/>
<path style=" stroke:none;fill-rule:evenodd;fill:rgb(13.333333%,24.313725%,32.156863%);fill-opacity:1;" d="M 101.671875 16.164062 L 113.105469 16.164062 C 114.914062 16.164062 116.375 17.613281 116.375 19.398438 C 116.375 21.183594 114.914062 22.632812 113.105469 22.632812 L 101.671875 22.632812 C 99.871094 22.632812 98.410156 21.183594 98.410156 19.398438 C 98.410156 17.613281 99.871094 16.164062 101.671875 16.164062 Z M 101.671875 16.164062 "/>
<path style=" stroke:none;fill-rule:evenodd;fill:rgb(93.72549%,13.333333%,12.941176%);fill-opacity:1;" d="M 58.390625 0 C 64.5625 0 68.796875 2.6875 71.085938 8.066406 L 89.425781 8.066406 C 91.230469 8.066406 92.695312 9.515625 92.695312 11.300781 L 92.695312 28.300781 C 92.695312 30.089844 91.230469 31.539062 89.425781 31.539062 L 27.359375 31.539062 C 25.554688 31.539062 24.089844 30.089844 24.089844 28.300781 L 24.089844 11.300781 C 24.089844 9.515625 25.554688 8.066406 27.359375 8.066406 L 46.183594 8.066406 C 48.152344 2.6875 52.222656 0 58.390625 0 Z M 58.742188 6.800781 C 54.300781 6.800781 51.707031 9.378906 50.949219 14.542969 L 33.074219 14.542969 C 32.175781 14.542969 31.441406 15.265625 31.441406 16.164062 L 31.441406 23.441406 C 31.441406 24.339844 32.175781 25.0625 33.074219 25.0625 L 84.519531 25.0625 C 85.429688 25.0625 86.160156 24.339844 86.160156 23.441406 L 86.160156 16.164062 C 86.160156 15.265625 85.429688 14.542969 84.519531 14.542969 L 66.457031 14.542969 C 65.753906 9.378906 63.183594 6.800781 58.742188 6.800781 Z M 58.742188 6.800781 "/>
<path style=" stroke:none;fill-rule:evenodd;fill:rgb(13.333333%,24.313725%,32.156863%);fill-opacity:1;" d="M 58.800781 50.15625 L 87.382812 50.15625 C 89.410156 50.15625 91.054688 51.78125 91.054688 53.796875 C 91.054688 55.808594 89.410156 57.4375 87.382812 57.4375 L 58.800781 57.4375 C 56.769531 57.4375 55.125 55.808594 55.125 53.796875 C 55.125 51.78125 56.769531 50.15625 58.800781 50.15625 Z M 58.800781 50.15625 "/>
<path style=" stroke:none;fill-rule:evenodd;fill:rgb(93.72549%,13.333333%,12.941176%);fill-opacity:1;" d="M 103.441406 87.699219 L 113.621094 99.300781 C 114.949219 100.820312 114.792969 103.121094 113.261719 104.441406 C 111.726562 105.761719 109.40625 105.601562 108.074219 104.082031 L 97.894531 92.476562 C 96.566406 90.953125 96.722656 88.65625 98.257812 87.339844 C 99.789062 86.019531 102.109375 86.179688 103.441406 87.699219 Z M 103.441406 87.699219 "/>
<path style=" stroke:none;fill-rule:evenodd;fill:rgb(93.72549%,13.333333%,12.941176%);fill-opacity:1;" d="M 108.175781 98.601562 L 121.589844 77.320312 C 122.664062 75.617188 124.929688 75.101562 126.652344 76.164062 C 128.375 77.234375 128.898438 79.476562 127.824219 81.183594 L 114.410156 102.460938 C 113.328125 104.171875 111.066406 104.6875 109.347656 103.625 C 107.625 102.554688 107.101562 100.308594 108.175781 98.601562 Z M 108.175781 98.601562 "/>
<path style=" stroke:none;fill-rule:evenodd;fill:rgb(13.333333%,24.313725%,32.156863%);fill-opacity:1;" d="M 27.765625 67.964844 L 72.679688 67.964844 C 74.714844 67.964844 76.355469 69.59375 76.355469 71.605469 C 76.355469 73.617188 74.714844 75.242188 72.679688 75.242188 L 27.765625 75.242188 C 25.734375 75.242188 24.089844 73.617188 24.089844 71.605469 C 24.089844 69.59375 25.734375 67.964844 27.765625 67.964844 Z M 27.765625 67.964844 "/>
<path style=" stroke:none;fill-rule:evenodd;fill:rgb(13.333333%,24.313725%,32.156863%);fill-opacity:1;" d="M 27.765625 86.582031 L 72.679688 86.582031 C 74.714844 86.582031 76.355469 88.210938 76.355469 90.21875 C 76.355469 92.234375 74.714844 93.863281 72.679688 93.863281 L 27.765625 93.863281 C 25.734375 93.863281 24.089844 92.234375 24.089844 90.21875 C 24.089844 88.210938 25.734375 86.582031 27.765625 86.582031 Z M 27.765625 86.582031 "/>
<path style=" stroke:none;fill-rule:evenodd;fill:rgb(13.333333%,24.313725%,32.156863%);fill-opacity:1;" d="M 27.765625 104.386719 L 72.679688 104.386719 C 74.714844 104.386719 76.355469 106.015625 76.355469 108.03125 C 76.355469 110.042969 74.714844 111.671875 72.679688 111.671875 L 27.765625 111.671875 C 25.734375 111.671875 24.089844 110.042969 24.089844 108.03125 C 24.089844 106.015625 25.734375 104.386719 27.765625 104.386719 Z M 27.765625 104.386719 "/>
<path style=" stroke:none;fill-rule:evenodd;fill:rgb(13.333333%,24.313725%,32.156863%);fill-opacity:1;" d="M 27.765625 122.195312 L 89.019531 122.195312 C 91.050781 122.195312 92.695312 123.828125 92.695312 125.839844 C 92.695312 127.847656 91.050781 129.476562 89.019531 129.476562 L 27.765625 129.476562 C 25.734375 129.476562 24.089844 127.847656 24.089844 125.839844 C 24.089844 123.828125 25.734375 122.195312 27.765625 122.195312 Z M 27.765625 122.195312 "/>
<path style=" stroke:none;fill-rule:evenodd;fill:rgb(13.333333%,24.313725%,32.156863%);fill-opacity:1;" d="M 3.675781 149.71875 L 113.105469 149.71875 C 114.914062 149.71875 116.375 151.167969 116.375 152.953125 C 116.375 154.738281 114.914062 156.1875 113.105469 156.1875 L 3.675781 156.1875 C 1.871094 156.1875 0.40625 154.738281 0.40625 152.953125 C 0.40625 151.167969 1.871094 149.71875 3.675781 149.71875 Z M 3.675781 149.71875 "/>
<path style=" stroke:none;fill-rule:evenodd;fill:rgb(13.333333%,24.313725%,32.156863%);fill-opacity:1;" d="M 6.941406 19.398438 L 6.941406 152.953125 C 6.941406 154.738281 5.484375 156.1875 3.675781 156.1875 C 1.871094 156.1875 0.40625 154.738281 0.40625 152.953125 L 0.40625 19.398438 C 0.40625 17.613281 1.871094 16.164062 3.675781 16.164062 C 5.484375 16.164062 6.941406 17.613281 6.941406 19.398438 Z M 6.941406 19.398438 "/>
<path style=" stroke:none;fill-rule:evenodd;fill:rgb(13.333333%,24.313725%,32.156863%);fill-opacity:1;" d="M 116.785156 131.90625 L 116.785156 152.953125 C 116.785156 154.738281 115.320312 156.1875 113.515625 156.1875 C 111.714844 156.1875 110.25 154.738281 110.25 152.953125 L 110.25 131.90625 C 110.25 130.121094 111.714844 128.671875 113.515625 128.671875 C 115.320312 128.671875 116.785156 130.121094 116.785156 131.90625 Z M 116.785156 131.90625 "/>
<path style=" stroke:none;fill-rule:evenodd;fill:rgb(13.333333%,24.313725%,32.156863%);fill-opacity:1;" d="M 116.785156 19.398438 L 116.785156 46.917969 C 116.785156 48.707031 115.320312 50.15625 113.515625 50.15625 C 111.714844 50.15625 110.25 48.707031 110.25 46.917969 L 110.25 19.398438 C 110.25 17.613281 111.714844 16.164062 113.515625 16.164062 C 115.320312 16.164062 116.785156 17.613281 116.785156 19.398438 Z M 116.785156 19.398438 "/>
<path style=" stroke:none;fill-rule:evenodd;fill:rgb(93.72549%,13.333333%,12.941176%);fill-opacity:1;" d="M 112.292969 55.824219 C 131.238281 55.824219 146.59375 71.042969 146.59375 89.816406 C 146.59375 108.59375 131.238281 123.8125 112.292969 123.8125 C 93.347656 123.8125 77.992188 108.59375 77.992188 89.816406 C 77.992188 71.042969 93.347656 55.824219 112.292969 55.824219 Z M 112.292969 63.105469 C 97.410156 63.105469 85.339844 75.0625 85.339844 89.816406 C 85.339844 104.574219 97.410156 116.527344 112.292969 116.527344 C 127.175781 116.527344 139.242188 104.574219 139.242188 89.816406 C 139.242188 75.0625 127.175781 63.105469 112.292969 63.105469 Z M 112.292969 63.105469 "/>
</g>
</svg>
