<?xml version="1.0" encoding="UTF-8"?>
<svg width="165px" height="204px" viewBox="0 0 165 204" version="1.1" xmlns="http://www.w3.org/2000/svg" xmlns:xlink="http://www.w3.org/1999/xlink">
    <!-- Generator: Sketch 61 (89581) - https://sketch.com -->
    <title>icon 2</title>
    <desc>Created with Sketch.</desc>
    <g id="Page-1" stroke="none" stroke-width="1" fill="none" fill-rule="evenodd">
        <g id="icon-2" transform="translate(-3.000000, 0.000000)">
            <path d="M103.055215,0 C105.816638,-5.07265313e-16 108.055215,2.23857625 108.055215,5 L108.055215,19.185567 C108.055215,21.9469908 105.816638,24.185567 103.055215,24.185567 L90.2207055,24.185 L90.2208589,30.7525773 C90.2208589,33.5140011 87.9822826,35.7525773 85.2208589,35.7525773 L84.7300613,35.7525773 C81.9686376,35.7525773 79.7300613,33.5140011 79.7300613,30.7525773 L79.7297055,24.185 L66.8957055,24.185567 C64.1342818,24.185567 61.8957055,21.9469908 61.8957055,19.185567 L61.8957055,5 C61.8957055,2.23857625 64.1342818,5.07265313e-16 66.8957055,0 L103.055215,0 Z M99.7116564,8.41237113 L71.2883436,8.41237113 C70.7755077,8.41237113 70.3528364,8.79841132 70.2950713,9.29575001 L70.2883436,9.41237113 L70.2883436,15.8247423 C70.2883436,16.3375781 70.6743837,16.7602494 71.1717224,16.8180145 L71.2883436,16.8247423 L99.7116564,16.8247423 C100.224492,16.8247423 100.647164,16.4387021 100.704929,15.9413634 L100.711656,15.8247423 L100.711656,9.41237113 C100.711656,8.86008638 100.263941,8.41237113 99.7116564,8.41237113 Z" id="Combined-Shape" fill="#223E52"></path>
            <g id="Group-5" transform="translate(153.472913, 53.320875) rotate(45.000000) translate(-153.472913, -53.320875) translate(141.933035, 40.702318)" fill="#EF2221">
                <g id="Group-6" transform="translate(0.000000, 0.180417)">
                    <rect id="Rectangle" x="7.34355828" y="5.5128799" width="8.39263804" height="17.8762887" rx="4.19631902"></rect>
                    <path d="M11.2821453,-5.23183227 L11.7976093,-5.23183227 C14.559033,-5.23183227 16.7976093,-2.99325602 16.7976093,-0.231832269 L16.7976093,11.7988426 C16.7976093,14.5602663 14.559033,16.7988426 11.7976093,16.7988426 L11.2821453,16.7988426 C8.52072159,16.7988426 6.28214534,14.5602663 6.28214534,11.7988426 L6.28214534,-0.231832269 C6.28214534,-2.99325602 8.52072159,-5.23183227 11.2821453,-5.23183227 Z" id="Rectangle-Copy-23" transform="translate(11.539877, 5.783505) rotate(90.000000) translate(-11.539877, -5.783505) "></path>
                </g>
            </g>
            <g id="Group-5-Copy" transform="translate(17.834356, 53.320875) scale(-1, 1) rotate(45.000000) translate(-17.834356, -53.320875) translate(6.294479, 40.702318)" fill="#EF2221">
                <g id="Group-6" transform="translate(0.000000, 0.180417)">
                    <rect id="Rectangle" x="7.34355828" y="5.5128799" width="8.39263804" height="17.8762887" rx="4.19631902"></rect>
                    <path d="M11.2821453,-5.23183227 L11.7976093,-5.23183227 C14.559033,-5.23183227 16.7976093,-2.99325602 16.7976093,-0.231832269 L16.7976093,11.7988426 C16.7976093,14.5602663 14.559033,16.7988426 11.7976093,16.7988426 L11.2821453,16.7988426 C8.52072159,16.7988426 6.28214534,14.5602663 6.28214534,11.7988426 L6.28214534,-0.231832269 C6.28214534,-2.99325602 8.52072159,-5.23183227 11.2821453,-5.23183227 Z" id="Rectangle-Copy-23" transform="translate(11.539877, 5.783505) rotate(90.000000) translate(-11.539877, -5.783505) "></path>
                </g>
            </g>
            <path d="M85.5,38.9072165 C130.982174,38.9072165 167.852761,75.8644949 167.852761,121.453608 C167.852761,167.042722 130.982174,204 85.5,204 C40.0178261,204 3.14723926,167.042722 3.14723926,121.453608 C3.14723926,75.8644949 40.0178261,38.9072165 85.5,38.9072165 Z M85.5,48.371134 C45.2323429,48.371134 12.5889571,81.0912723 12.5889571,121.453608 C12.5889571,161.815944 45.2323429,194.536082 85.5,194.536082 C125.767657,194.536082 158.411043,161.815944 158.411043,121.453608 C158.411043,81.0912723 125.767657,48.371134 85.5,48.371134 Z" id="Combined-Shape" fill="#223E52"></path>
            <text id="10" font-family="CTCSplashRounded-Bold, CTC Splash Rounded" font-size="80" font-weight="bold" letter-spacing="0.32" fill="#EF2221">
                <tspan x="44.3" y="146.185567">10</tspan>
            </text>
        </g>
    </g>
</svg>