<?xml version="1.0" encoding="UTF-8"?>
<svg width="109px" height="109px" viewBox="0 0 109 109" version="1.1" xmlns="http://www.w3.org/2000/svg" xmlns:xlink="http://www.w3.org/1999/xlink">
    <!-- Generator: Sketch 61 (89581) - https://sketch.com -->
    <title>icon 3</title>
    <desc>Created with Sketch.</desc>
    <g id="Page-1" stroke="none" stroke-width="1" fill="none" fill-rule="evenodd">
        <g id="icon-3" fill="#EF2221">
            <path d="M54.5,0 C84.5995189,0 109,24.4004811 109,54.5 C109,84.5995189 84.5995189,109 54.5,109 C24.4004811,109 0,84.5995189 0,54.5 C0,39.6835623 5.9124418,26.2480495 15.5066938,16.424093 L17.6438977,18.4077762 C8.52549099,27.7178113 2.90379872,40.4658409 2.90379872,54.526887 C2.90379872,83.0375314 26.0162426,106.149975 54.526887,106.149975 C83.0375314,106.149975 106.149975,83.0375314 106.149975,54.526887 C106.149975,26.0162426 83.0375314,2.90379872 54.526887,2.90379872 C49.7757167,2.90379872 45.1744584,3.5456479 40.805091,4.74736715 L39.6590117,2.04510337 C44.3772645,0.712827836 49.3553873,0 54.5,0 Z" id="Combined-Shape"></path>
            <path d="M54.6613222,13.4972866 C77.2767969,13.4972866 95.6102615,31.8307512 95.6102615,54.4462259 C95.6102615,77.0617007 77.2767969,95.3951653 54.6613222,95.3951653 C32.0458474,95.3951653 13.7123828,77.0617007 13.7123828,54.4462259 C13.7123828,43.5311529 17.9829585,33.6135262 24.9443754,26.2730804 L26.8682923,28.3246729 C20.444323,35.1566502 16.5086334,44.3552668 16.5086334,54.473113 C16.5086334,75.5591104 33.6022117,92.6526887 54.6882092,92.6526887 C75.7742066,92.6526887 92.8677849,75.5591104 92.8677849,54.473113 C92.8677849,33.3871155 75.7742066,16.2935372 54.6882092,16.2935372 L54.6083828,16.2942866 L54.5711502,13.4973838 C54.6011999,13.497319 54.6312573,13.4972866 54.6613222,13.4972866 Z" id="Combined-Shape"></path>
            <path d="M29.6026147,53.6127282 L79.3436112,53.6127282 C80.0118295,53.6127282 80.5535274,54.1544261 80.5535274,54.8226443 C80.5535274,55.4908625 80.0118295,56.0325604 79.3436112,56.0325604 L29.6026147,56.0325604 C28.9343965,56.0325604 28.3926986,55.4908625 28.3926986,54.8226443 C28.3926986,54.1544261 28.9343965,53.6127282 29.6026147,53.6127282 Z" id="Rectangle" transform="translate(54.473113, 54.822644) rotate(-60.000000) translate(-54.473113, -54.822644) "></path>
            <polygon id="Path-23" points="24.9488487 27.502591 24.9488487 26.3400422 26.4943276 24.8782703 33.4474593 31.0307779 33.4474593 10.8316902 13.7123828 10.8316902 19.7308754 16.445512 17.6520672 18.4296379 15.5316157 18.7092209 15.5316157 16.445512 6.14620591 7.7746564 36.7755689 7.7746564 36.7755689 38.035287 26.0816747 28.9062828"></polygon>
            <path d="M66.4647262,53.0749877 C70.6819257,53.0749877 74.1006413,58.2030612 74.1006413,64.5288604 C74.1006413,70.8546596 70.6819257,75.9827331 66.4647262,75.9827331 C62.2475267,75.9827331 58.8288111,70.8546596 58.8288111,64.5288604 C58.8288111,58.2030612 62.2475267,53.0749877 66.4647262,53.0749877 Z M66.5185002,56.2476566 C63.7565316,56.2476566 61.5175136,59.9673156 61.5175136,64.5557474 C61.5175136,69.1441792 63.7565316,72.8638382 66.5185002,72.8638382 C69.2804689,72.8638382 71.5194869,69.1441792 71.5194869,64.5557474 C71.5194869,59.9673156 69.2804689,56.2476566 66.5185002,56.2476566 Z" id="Combined-Shape"></path>
            <path d="M44.4711396,33.3936852 C48.6883391,33.3936852 52.1070548,38.5217587 52.1070548,44.847558 C52.1070548,51.1733572 48.6883391,56.3014307 44.4711396,56.3014307 C40.2539401,56.3014307 36.8352245,51.1733572 36.8352245,44.847558 C36.8352245,38.5217587 40.2539401,33.3936852 44.4711396,33.3936852 Z M44.5249137,36.5663542 C41.762945,36.5663542 39.523927,40.2860132 39.523927,44.874445 C39.523927,49.4628768 41.762945,53.1825358 44.5249137,53.1825358 C47.2868823,53.1825358 49.5259003,49.4628768 49.5259003,44.874445 C49.5259003,40.2860132 47.2868823,36.5663542 44.5249137,36.5663542 Z" id="Combined-Shape-Copy-2"></path>
        </g>
    </g>
</svg>