<?xml version="1.0" encoding="UTF-8"?>
<svg width="59px" height="59px" viewBox="0 0 59 59" version="1.1" xmlns="http://www.w3.org/2000/svg" xmlns:xlink="http://www.w3.org/1999/xlink">
    <!-- Generator: Sketch 61 (89581) - https://sketch.com -->
    <title>Group 2 Copy 8</title>
    <desc>Created with Sketch.</desc>
    <g id="Page-1" stroke="none" stroke-width="1" fill="none" fill-rule="evenodd">
        <g id="главная-страница" transform="translate(-462.000000, -2701.000000)">
            <g id="Group-2-Copy-8" transform="translate(464.000000, 2703.000000)">
                <g id="Group-2-Copy-2">
                    <circle id="Oval" stroke="#223E52" stroke-width="4" cx="27.5" cy="27.5" r="27.5"></circle>
                    <g id="Group-7" transform="translate(12.000000, 12.000000)" fill="#EF2221">
                        <path d="M2.27693073,15.9213645 L15.6840866,16.0945813 C17.4415017,16.1172866 18.8606706,17.5363886 18.8834586,19.2938026 C18.9054992,20.9935693 17.5454335,22.3893698 15.8456668,22.4114104 C15.8191109,22.4117547 15.7925517,22.4117553 15.7659958,22.4114122 L2.35883992,22.2381954 C0.601424829,22.2154901 -0.817744024,20.7963881 -0.840532089,19.0389741 C-0.862572651,17.3392074 0.49749306,15.9434069 2.1972597,15.9213663 C2.22381559,15.921022 2.25037483,15.9210214 2.27693073,15.9213645 Z" id="Rectangle-Copy-21" transform="translate(9.021463, 19.166388) rotate(49.000000) translate(-9.021463, -19.166388) "></path>
                        <path d="M8.46232795,10.8729655 L30.4575314,10.6160472 C32.1546943,10.5962232 33.5465871,11.9559751 33.5664111,13.653138 C33.5666922,13.6772048 33.5666906,13.7012741 33.5664062,13.7253408 C33.5457371,15.4746806 32.1325306,16.8876968 30.3831881,16.9081302 L8.38798468,17.1650486 C6.69082178,17.1848726 5.29892891,15.8251207 5.27910493,14.1279578 C5.27882382,14.103891 5.27882544,14.0798217 5.2791098,14.055755 C5.29977889,12.3064152 6.71298544,10.893399 8.46232795,10.8729655 Z" id="Rectangle-Copy-22" transform="translate(19.422758, 13.890548) rotate(-58.000000) translate(-19.422758, -13.890548) "></path>
                    </g>
                </g>
            </g>
        </g>
    </g>
</svg>