<?xml version="1.0" encoding="UTF-8"?>
<svg width="112px" height="119px" viewBox="0 0 112 119" version="1.1" xmlns="http://www.w3.org/2000/svg" xmlns:xlink="http://www.w3.org/1999/xlink">
    <!-- Generator: Sketch 61 (89581) - https://sketch.com -->
    <title>icon 4</title>
    <desc>Created with Sketch.</desc>
    <g id="Page-1" stroke="none" stroke-width="1" fill="none" fill-rule="evenodd">
        <g id="icon-4" transform="translate(2.000000, -1.000000)">
            <g id="Group-23" transform="translate(0.000000, 35.000000)" stroke="#EF2221">
                <path d="" id="Path-26" stroke-width="35"></path>
                <path d="M66.7421916,80.2534864 C61.3111572,78.8685143 56.8942639,75.9846697 53.4915119,71.6019523 C44.1477454,81.1579913 33.1419927,84.4493472 20.474254,81.4760197" id="Path-25" stroke-width="3"></path>
                <path d="M53.5010237,30.5003538 C55.2519355,34.726588 59.1943219,37.6849893 65.328183,39.3755574" id="Path-29" stroke-width="3"></path>
                <path d="M53.5010237,44.9956599 C55.2519355,49.2218941 59.1943219,52.1802953 65.328183,53.8708635" id="Path-29-Copy" stroke-width="3"></path>
                <path d="M53.5010237,57.9740776 C55.2519355,62.2003119 59.1943219,65.1587131 65.328183,66.8492813" id="Path-29-Copy-2" stroke-width="3"></path>
                <path d="M107.725166,30.5003538 C98.5410477,39.3620234 87.3569214,43.0566414 74.1727868,41.5842078" id="Path-28" stroke-width="3"></path>
                <path d="M107.725166,44.7097916 C98.5410477,53.5714612 87.3569214,57.2660792 74.1727868,55.7936456" id="Path-28-Copy" stroke-width="3"></path>
                <path d="M107.725166,57.9740776 C98.5410477,66.8357472 87.3569214,70.5303652 74.1727868,69.0579316" id="Path-28-Copy-2" stroke-width="3"></path>
                <path d="M53.5010237,57.9740776 C45.0055579,67.2560107 33.9966346,70.4700928 20.474254,67.6163238" id="Path-31" stroke-width="3"></path>
                <path d="M0.190683024,56.8819717 C2.40338196,61.8103698 6.59385776,64.8660332 12.7621104,66.0489619" id="Path-32" stroke-width="3"></path>
                <ellipse id="Oval" stroke-width="3" cx="80.6132626" cy="12.2065735" rx="27.1002653" ry="12.2065735"></ellipse>
                <ellipse id="Oval-Copy-6" stroke-width="3" cx="26.8424403" cy="40.5075286" rx="26.670557" ry="12.2065735"></ellipse>
                <path d="M107.959715,12.2065735 L107.959715,69.3726267 C100.458919,80.1998414 89.4424237,84.530734 74.9102288,82.3653045" id="Path-27" stroke-width="3"></path>
                <line x1="53.264301" y1="12.2065735" x2="53.2687754" y2="45.3672886" id="Path-33" stroke-width="3"></line>
                <path d="M5.21089803e-14,39.3755574 L5.21089803e-14,70.5621066 C0.978779841,74.0732515 4.91508621,77.0084632 11.8089191,79.3677415" id="Path-34" stroke-width="3"></path>
            </g>
            <g id="Group-21" transform="translate(8.000000, 0.000000)" fill="#EF2221">
                <path d="M-7.38109701,23.3795237 L44.8123951,23.7207057 C45.5217918,23.7253429 46.0957185,24.2992977 46.100321,25.0086946 C46.1048468,25.7062662 45.5430221,26.2754286 44.8454504,26.2799544 C44.8399668,26.27999 44.8344829,26.2799899 44.8289993,26.279954 L-7.36449288,25.9387721 C-8.07388956,25.9341349 -8.64781622,25.3601801 -8.65241871,24.6507832 C-8.65694449,23.9532115 -8.09511979,23.3840491 -7.39754813,23.3795233 C-7.39206448,23.3794878 -7.38658066,23.3794879 -7.38109701,23.3795237 Z" id="Rectangle-Copy-9" transform="translate(18.723951, 24.829739) rotate(-60.000000) translate(-18.723951, -24.829739) "></path>
                <path d="M31.4539545,23.0021634 C35.9308303,23.0021634 39.5600553,28.3647393 39.5600553,34.979812 C39.5600553,41.5948847 35.9308303,46.9574607 31.4539545,46.9574607 C26.9770786,46.9574607 23.3478537,41.5948847 23.3478537,34.979812 C23.3478537,28.3647393 26.9770786,23.0021634 31.4539545,23.0021634 Z M31.5110397,26.3199158 C28.5790013,26.3199158 26.2021145,30.2096716 26.2021145,35.0079286 C26.2021145,39.8061855 28.5790013,43.6959413 31.5110397,43.6959413 C34.4430781,43.6959413 36.8199649,39.8061855 36.8199649,35.0079286 C36.8199649,30.2096716 34.4430781,26.3199158 31.5110397,26.3199158 Z" id="Combined-Shape-Copy-3"></path>
                <path d="M8.1061008,2.42085162 C12.5829766,2.42085162 16.2122016,7.78342758 16.2122016,14.3985003 C16.2122016,21.013573 12.5829766,26.3761489 8.1061008,26.3761489 C3.62922495,26.3761489 0,21.013573 0,14.3985003 C0,7.78342758 3.62922495,2.42085162 8.1061008,2.42085162 Z M8.16318601,5.73860406 C5.2311476,5.73860406 2.85426084,9.62835986 2.85426084,14.4266168 C2.85426084,19.2248738 5.2311476,23.1146296 8.16318601,23.1146296 C11.0952244,23.1146296 13.4721112,19.2248738 13.4721112,14.4266168 C13.4721112,9.62835986 11.0952244,5.73860406 8.16318601,5.73860406 Z" id="Combined-Shape-Copy-4"></path>
            </g>
        </g>
    </g>
</svg>