<?xml version="1.0" encoding="UTF-8"?>
<svg width="21px" height="21px" viewBox="0 0 21 21" version="1.1" xmlns="http://www.w3.org/2000/svg" xmlns:xlink="http://www.w3.org/1999/xlink">
    <!-- Generator: Sketch 61 (89581) - https://sketch.com -->
    <title>Social 1</title>
    <desc>Created with Sketch.</desc>
    <g id="Page-1" stroke="none" stroke-width="1" fill="none" fill-rule="evenodd">
        <path d="M6.82248804,10.7110048 C6.82248804,8.87996011 8.30661519,7.39521531 10.1378796,7.39521531 C11.969144,7.39521531 13.454067,8.87996011 13.454067,10.7110048 C13.454067,12.5420495 11.969144,14.0267943 10.1378796,14.0267943 C8.30661519,14.0267943 6.82248804,12.5420495 6.82248804,10.7110048 M4.61196172,10.7110048 C4.61196172,13.7631952 7.08608709,16.2373206 10.1382775,16.2373206 C13.1904679,16.2373206 15.6645933,13.7631952 15.6645933,10.7110048 C15.6645933,7.65881436 13.1904679,5.184689 10.1382775,5.184689 C7.08608709,5.184689 4.61196172,7.65881436 4.61196172,10.7110048 M14.5593301,5.18424693 C14.5590861,5.79466687 15.0537313,6.28970791 15.6641512,6.28995215 C16.2745711,6.29019621 16.7696122,5.79555102 16.7698565,5.18513108 C16.7701006,4.57471115 16.2754554,4.07967005 15.6650355,4.07942584 L15.6645934,4.07942584 C15.0544638,4.0797102 14.5598587,4.57411751 14.5593301,5.18424693 M4.53658294,18.3828383 C4.06449578,18.1990556 3.72766045,17.9801665 3.37351418,17.6265142 C3.01936792,17.2728619 2.80014992,16.9363584 2.61717165,16.4642827 C2.47836055,16.1083655 2.31414929,15.5723865 2.26933498,14.5865767 C2.22031428,13.5207665 2.21052632,13.2006027 2.21052632,10.5004045 C2.21052632,7.80020615 2.2211232,7.48093224 2.26933498,6.41423217 C2.31423018,5.42842238 2.47965483,4.89349498 2.61717165,4.5365262 C2.80095884,4.06445055 3.01985327,3.72762344 3.37351418,3.37348581 C3.7271751,3.01934818 4.06368685,2.80013554 4.53658294,2.61716173 C4.89250884,2.47835402 5.42850088,2.31414676 6.41433472,2.26933355 C7.480171,2.22031404 7.80034252,2.21052632 10.4993933,2.21052632 C13.1984441,2.21052632 13.5189392,2.22112294 14.5856653,2.26933355 C15.5714991,2.31422765 16.1064396,2.47964826 16.4634171,2.61716173 C16.9355042,2.80013554 17.2723396,3.01983353 17.6264858,3.37348581 C17.9806321,3.7271381 18.1990412,4.06445055 18.3828283,4.5365262 C18.5216394,4.89244341 18.6858507,5.42842238 18.730665,6.41423217 C18.7796857,7.48093224 18.7894737,7.80020615 18.7894737,10.5004045 C18.7894737,13.2006027 18.7796857,13.5198767 18.730665,14.5865767 C18.6857698,15.5723865 18.5207496,16.1082037 18.3828283,16.4642827 C18.1990412,16.9363584 17.9801467,17.2731855 17.6264858,17.6265142 C17.2728249,17.9798429 16.9355042,18.1990556 16.4634171,18.3828383 C16.1074912,18.521646 15.5714991,18.6858532 14.5856653,18.7306665 C13.519829,18.779686 13.1996575,18.7894737 10.4993933,18.7894737 C7.79912914,18.7894737 7.47984743,18.779686 6.41433472,18.7306665 C5.42850088,18.6857724 4.89267062,18.5215651 4.53658294,18.3828383 Z M3.6225609,0.551292 C2.93171727,0.819336 2.34688588,1.17894 1.7624745,1.762404 C1.17806312,2.345868 0.819368775,2.9316 0.551314053,3.622416 C0.29174367,4.28988 0.11449658,5.053272 0.0635905436,6.17106 C0.0118444738,7.290612 0,7.648536 0,10.5 C0,13.351464 0.0118444738,13.709388 0.0635905436,14.82894 C0.11449658,15.946812 0.29174367,16.71012 0.551314053,17.377584 C0.819368775,18.06798 1.17814713,18.654384 1.7624745,19.237596 C2.34680187,19.820808 2.93171727,20.179908 3.6225609,20.448708 C4.29089164,20.708268 5.05347414,20.885508 6.17130685,20.936412 C7.29149166,20.987316 7.64884195,21 10.50042,21 C13.3519981,21 13.7099364,20.988156 14.8295332,20.936412 C15.9474499,20.885508 16.7107884,20.708268 17.3782791,20.448708 C18.0687027,20.179908 18.6539542,19.82106 19.2383655,19.237596 C19.8227769,18.654132 20.1807152,18.06798 20.449526,17.377584 C20.7090964,16.71012 20.8871835,15.946728 20.9372495,14.82894 C20.9881555,13.708548 21,13.351464 21,10.5 C21,7.648536 20.9881555,7.290612 20.9372495,6.17106 C20.8863435,5.053188 20.7090964,4.28946 20.449526,3.622416 C20.1807152,2.93202 19.8218529,2.346792 19.2383655,1.762404 C18.6548782,1.178016 18.0687027,0.819336 17.3791192,0.551292 C16.7107884,0.291732 15.9473659,0.113652 14.8303732,0.063588 C13.7107764,0.012684 13.3528381,0 10.5012601,0 C7.64968199,0 7.29149166,0.011844 6.17130685,0.063588 C5.05347414,0.114492 4.28963159,0.291732 3.6225609,0.551292 Z" id="Social-1" fill="#EF2221" fill-rule="nonzero"></path>
    </g>
</svg>