<?xml version="1.0" encoding="UTF-8"?>
<svg width="47px" height="45px" viewBox="0 0 47 45" version="1.1" xmlns="http://www.w3.org/2000/svg" xmlns:xlink="http://www.w3.org/1999/xlink">
    <!-- Generator: Sketch 61 (89581) - https://sketch.com -->
    <title>Оферта</title>
    <desc>Created with Sketch.</desc>
    <g id="Page-1" stroke="none" stroke-width="1" fill="none" fill-rule="evenodd">
        <g id="Оферта" transform="translate(1.000000, 1.000000)" stroke="#EF2221">
            <path d="M-1.08357767e-13,1.59171196 L-1.08357767e-13,41.4936141 C-1.08357767e-13,42.7951313 0.540145746,43.4458899 1.62043724,43.4458899 C14.9452838,43.4458899 14.929589,43.4458899 28.1298007,43.4458899 C29.3036453,43.4458899 29.8905676,42.7951313 29.8905676,41.4936141 L29.8905676,10.2986753 L19.2886686,-1.77635684e-14 C13.176208,-1.77635684e-14 7.28679753,-1.77635684e-14 1.62043724,-1.77635684e-14 C0.540145746,-1.77635684e-14 -1.08357767e-13,0.530570652 -1.08357767e-13,1.59171196 Z" id="Path-5"></path>
            <path d="M29.8905676,10.2986753 C26.4447381,10.2986753 23.5493944,10.2986753 21.2045365,10.2986753 C20.1035649,10.2986753 19.553079,9.75863904 19.553079,8.67856658 L19.553079,8.57980353e-13" id="Path-6"></path>
            <line x1="5.72212283" y1="30.9247962" x2="15.487953" y2="30.9247962" id="Path-7"></line>
            <line x1="5.72212283" y1="8.45998641" x2="15.487953" y2="8.45998641" id="Path-7-Copy"></line>
            <line x1="5.72212283" y1="26.2512908" x2="24.1370552" y2="26.2512908" id="Path-8"></line>
            <line x1="5.72212283" y1="21.4686821" x2="24.1370552" y2="21.4686821" id="Path-8-Copy"></line>
            <line x1="5.72212283" y1="16.8773777" x2="24.1370552" y2="16.8773777" id="Path-8-Copy-2"></line>
            <path d="M35.3327698,5.82805707 L35.3327698,37.0719429 C36.3579413,39.5217844 37.3816086,40.7467052 38.4037717,40.7467052 C39.3554547,40.7467052 40.3056336,39.5217844 41.2543084,37.0719429 L41.2543084,5.82805707 C41.2543084,5.37557745 40.9794655,5.14933764 40.4297798,5.14933764 C38.2881751,5.14933764 38.2881751,5.14933764 36.1401265,5.14933764 C35.6018887,5.14933764 35.3327698,5.37557745 35.3327698,5.82805707 Z" id="Path-9"></path>
            <polyline id="Path-10" points="35.3327698 10.1639776 44.7997534 10.1639776 44.7997534 22.021858"></polyline>
            <line x1="38.4037717" y1="40.7467052" x2="38.4037717" y2="43.7628312" id="Path-11"></line>
        </g>
    </g>
</svg>