<?xml version="1.0" encoding="UTF-8"?>
<svg xmlns="http://www.w3.org/2000/svg" xmlns:xlink="http://www.w3.org/1999/xlink" width="169pt" height="41pt" viewBox="0 0 169 41" version="1.1">
<g id="surface1">
<path style=" stroke:none;fill-rule:nonzero;fill:rgb(93.72549%,13.333333%,12.941176%);fill-opacity:1;" d="M 16.859375 31.890625 C 18.578125 31.890625 19.417969 31.53125 19.417969 30.019531 L 19.417969 28.859375 C 19.417969 27.300781 18.578125 27.035156 16.859375 27.035156 L 7.679688 27.035156 L 17.742188 15.457031 C 18.667969 14.34375 19.109375 13.898438 19.109375 12.5625 L 19.109375 11.804688 C 19.109375 10.691406 18.402344 10.023438 16.726562 10.023438 L 2.78125 10.023438 C 1.058594 10.023438 0.265625 10.378906 0.265625 11.894531 L 0.265625 13.09375 C 0.265625 14.652344 1.058594 14.921875 2.78125 14.921875 L 11.164062 14.921875 L 1.367188 26.320312 C 0.398438 27.433594 0 27.878906 0 29.304688 L 0 30.109375 C 0 31.222656 0.660156 31.890625 2.339844 31.890625 Z M 28.859375 32.191406 C 32.097656 32.191406 34.847656 30.816406 36.402344 28.550781 L 36.402344 29.085938 C 36.402344 31.347656 37.953125 32.058594 40.125 32.058594 C 41.367188 32.058594 42.476562 31.570312 42.476562 30.417969 L 42.476562 17.804688 C 42.476562 12.566406 39.0625 9.414062 32.1875 9.414062 C 26.464844 9.414062 22.472656 12.078125 22.472656 14.832031 C 22.472656 16.742188 24.824219 18.648438 26.375 16.917969 C 27.53125 15.675781 29.082031 14.164062 31.789062 14.164062 C 34.714844 14.164062 36.269531 15.675781 36.269531 18.472656 L 35.558594 18.472656 C 26.023438 18.605469 21.542969 20.914062 21.542969 25.886719 C 21.542969 29.617188 24.292969 32.191406 28.859375 32.191406 Z M 31.023438 28.246094 C 28.914062 28.246094 27.609375 27.238281 27.609375 25.621094 C 27.609375 23.304688 30.214844 22.34375 35.242188 22.214844 L 36.410156 22.171875 L 36.410156 23.394531 C 36.410156 26.191406 34.210938 28.246094 31.023438 28.246094 Z M 51.179688 41 C 54.539062 41 57.054688 38.96875 58.734375 34.601562 L 67.265625 12.273438 C 67.660156 11.214844 66.777344 10.023438 64.878906 10.023438 C 62.890625 10.023438 61.917969 10.726562 60.988281 13.15625 L 56.21875 25.597656 L 51.269531 12.714844 C 50.515625 10.726562 49.28125 10.023438 47.511719 10.023438 C 45.613281 10.023438 44.152344 11.214844 44.726562 12.539062 L 52.019531 29.4375 C 52.417969 30.363281 52.683594 30.675781 53.699219 30.675781 L 54.273438 30.675781 L 53.433594 32.925781 C 51.976562 36.585938 50.871094 35.835938 48.128906 35.441406 C 46.980469 35.261719 46.496094 36.324219 46.496094 37.160156 C 46.496094 39.058594 47.996094 41 51.179688 41 Z M 75.746094 29.492188 L 75.746094 18.699219 C 75.746094 16.921875 77.421875 14.699219 79.9375 14.699219 C 82.40625 14.699219 83.773438 16.210938 83.773438 19.230469 L 83.773438 29.492188 C 83.773438 31.710938 84.875 31.878906 86.449219 31.886719 L 87.300781 31.890625 C 88.890625 31.890625 90.039062 31.753906 90.039062 29.492188 L 90.039062 18.699219 C 90.039062 16.921875 91.714844 14.699219 94.226562 14.699219 C 96.699219 14.699219 98.109375 16.210938 98.109375 19.097656 L 98.109375 29.492188 C 98.109375 31.710938 99.171875 31.878906 100.78125 31.886719 L 101.59375 31.890625 C 103.226562 31.890625 104.375 31.753906 104.375 29.492188 L 104.375 18.074219 C 104.375 12.96875 102.078125 9.414062 96.566406 9.414062 C 92.949219 9.414062 90.699219 11.367188 89.242188 13.902344 C 88.230469 11.101562 85.890625 9.414062 82.316406 9.414062 C 79.230469 9.414062 77.066406 10.96875 75.613281 13.191406 C 75.171875 10.390625 73.453125 9.679688 71.863281 9.679688 C 70.582031 9.679688 69.480469 10.035156 69.480469 10.835938 L 69.480469 29.492188 C 69.480469 31.710938 70.542969 31.878906 72.152344 31.886719 L 73.011719 31.890625 C 74.597656 31.890625 75.746094 31.753906 75.746094 29.492188 Z M 111.246094 6.378906 C 113.410156 6.378906 114.6875 5.183594 114.6875 3.144531 C 114.6875 1.152344 113.410156 0 111.246094 0 C 109.082031 0 107.710938 1.195312 107.710938 3.144531 C 107.710938 5.183594 109.082031 6.378906 111.246094 6.378906 Z M 114.386719 30.019531 L 114.386719 12.285156 C 114.386719 10.242188 113.265625 10.023438 111.558594 10.023438 L 110.886719 10.023438 C 109.269531 10.023438 108.015625 10.242188 108.015625 12.285156 L 108.015625 30.019531 C 108.015625 32.0625 109.171875 32.1875 110.734375 32.191406 L 111.605469 32.191406 C 113.21875 32.191406 114.386719 32.148438 114.386719 30.019531 Z M 121.734375 31.890625 C 123.742188 31.890625 124.703125 30.933594 124.703125 28.980469 L 124.703125 28.375 C 124.703125 26.464844 123.785156 25.511719 121.734375 25.511719 L 120.992188 25.511719 C 119.074219 25.511719 118.027344 26.464844 118.027344 28.375 L 118.027344 28.980469 C 118.027344 30.933594 119.074219 31.890625 120.992188 31.890625 Z M 134.582031 29.371094 L 134.582031 21.605469 L 141.171875 30.125 C 142.398438 31.710938 143.191406 31.84375 145.300781 31.84375 C 147.671875 31.84375 148.507812 29.992188 147.847656 29.195312 L 140.644531 20.277344 L 147.230469 11.980469 C 147.847656 11.1875 147.230469 9.640625 144.15625 9.640625 C 143.101562 9.640625 141.917969 9.730469 140.730469 11.230469 L 134.582031 19.308594 L 134.582031 4.035156 C 134.582031 1.785156 133.394531 1.519531 131.8125 1.519531 L 131.15625 1.519531 C 129.484375 1.519531 128.34375 1.738281 128.34375 4.035156 L 128.34375 29.371094 C 128.34375 31.578125 129.394531 31.867188 130.957031 31.886719 L 131.8125 31.890625 C 133.394531 31.890625 134.582031 31.625 134.582031 29.371094 Z M 166.441406 31.890625 C 168.160156 31.890625 169 31.53125 169 30.019531 L 169 28.859375 C 169 27.300781 168.160156 27.035156 166.441406 27.035156 L 157.261719 27.035156 L 167.324219 15.457031 C 168.25 14.34375 168.691406 13.898438 168.691406 12.5625 L 168.691406 11.804688 C 168.691406 10.691406 167.984375 10.023438 166.308594 10.023438 L 152.363281 10.023438 C 150.640625 10.023438 149.847656 10.378906 149.847656 11.894531 L 149.847656 13.09375 C 149.847656 14.652344 150.640625 14.921875 152.363281 14.921875 L 160.746094 14.921875 L 150.949219 26.320312 C 149.980469 27.433594 149.582031 27.878906 149.582031 29.304688 L 149.582031 30.109375 C 149.582031 31.222656 150.242188 31.890625 151.921875 31.890625 Z M 166.441406 31.890625 "/>
</g>
</svg>
