<?xml version="1.0" encoding="UTF-8"?>
<svg width="152px" height="110px" viewBox="0 0 152 110" version="1.1" xmlns="http://www.w3.org/2000/svg" xmlns:xlink="http://www.w3.org/1999/xlink">
    <!-- Generator: Sketch 61 (89581) - https://sketch.com -->
    <title>icon 5</title>
    <desc>Created with Sketch.</desc>
    <g id="Page-1" stroke="none" stroke-width="1" fill="none" fill-rule="evenodd">
        <g id="icon-5" transform="translate(0.000000, -0.000000)">
            <rect id="Rectangle" fill="#EF2221" x="14.2837838" y="46.9324324" width="2.04054054" height="62.2364865" rx="1.02027027"></rect>
            <path d="M69.3677265,5.10135135 L89.7837838,25.9295443 L89.7837838,29.8684628 C89.7837838,30.3615597 89.4644043,30.6081081 88.8256454,30.6081081 C88.1868865,30.6081081 87.8519614,30.3615597 87.8208702,29.8684628 L87.8208702,27.4606991 L83.214622,27.3824963 C75.0307988,27.243555 68.4692486,20.5696601 68.4692486,12.3846576 L68.4692486,7.10648037 L38.3375714,7.10648037 C37.9458571,7.10648037 37.75,6.79247332 37.75,6.16445924 C37.75,5.53644515 37.9458571,5.18207586 38.3375714,5.10135135 L69.3677265,5.10135135 Z M70.3017066,9.27969135 L70.3017066,12.2749984 C70.3017066,19.4547001 76.1220049,25.2749984 83.3017066,25.2749984 L86.114036,25.2749984 L70.3017066,9.27969135 Z" id="Combined-Shape" fill="#EF2221"></path>
            <rect id="Rectangle" fill="#EF2221" x="38.7702703" y="35.7094595" width="24.4864865" height="2.04054054" rx="1.02027027"></rect>
            <rect id="Rectangle-Copy-27" fill="#EF2221" x="30.6081081" y="45.9121622" width="26.527027" height="2.04054054" rx="1.02027027"></rect>
            <rect id="Rectangle-Copy-29" fill="#EF2221" x="30.6081081" y="54.0743243" width="26.527027" height="2.04054054" rx="1.02027027"></rect>
            <rect id="Rectangle-Copy-31" fill="#EF2221" x="30.6081081" y="62.2364865" width="26.527027" height="2.04054054" rx="1.02027027"></rect>
            <rect id="Rectangle-Copy-28" fill="#EF2221" x="65.2972973" y="45.9121622" width="7.14189189" height="2.04054054" rx="1.02027027"></rect>
            <rect id="Rectangle-Copy-30" fill="#EF2221" x="65.2972973" y="54.0743243" width="7.14189189" height="2.04054054" rx="1.02027027"></rect>
            <rect id="Rectangle-Copy-38" fill="#EF2221" x="65.2972973" y="62.2364865" width="7.14189189" height="2.04054054" rx="1.02027027"></rect>
            <path d="M58.5859873,75.6580209 L63.7034847,75.6525306 C64.2572385,75.6519365 64.7066263,76.1003611 64.7072204,76.6541149 C64.7072212,76.6548327 64.7072212,76.6555504 64.7072204,76.6562682 C64.7066237,77.2115612 64.2566181,77.661566 63.701325,77.6621618 L58.5838276,77.6676521 C58.0300737,77.6682462 57.5806859,77.2198216 57.5800918,76.6660677 C57.5800911,76.66535 57.5800911,76.6646323 57.5800918,76.6639145 C57.5806886,76.1086215 58.0306942,75.6586167 58.5859873,75.6580209 Z" id="Rectangle-Copy-39" fill="#EF2221" transform="translate(61.143656, 76.660091) rotate(26.000000) translate(-61.143656, -76.660091) "></path>
            <path d="M54.548737,72.6334206 L55.3137895,72.6325998 C55.8675433,72.6320057 56.3169311,73.0804303 56.3175252,73.6341842 C56.317526,73.6349019 56.317526,73.6356196 56.3175252,73.6363374 C56.3169285,74.1916304 55.8669228,74.6416352 55.3116298,74.642231 L54.5465773,74.6430518 C53.9928235,74.6436459 53.5434357,74.1952213 53.5428416,73.6414674 C53.5428408,73.6407497 53.5428408,73.6400319 53.5428416,73.6393142 C53.5434383,73.0840212 53.9934439,72.6340164 54.548737,72.6334206 Z" id="Rectangle-Copy-47" fill="#EF2221" transform="translate(54.930183, 73.637826) rotate(26.000000) translate(-54.930183, -73.637826) "></path>
            <path d="M54.4548866,83.933892 L59.5768948,83.9324429 C60.1312506,83.9322861 60.5807719,84.3815531 60.5809288,84.9359089 C60.5809288,84.9360984 60.5809288,84.936288 60.5809288,84.9364776 C60.5807714,85.4912396 60.131087,85.9409236 59.576325,85.9410806 L54.4543168,85.9425298 C53.899961,85.9426866 53.4504397,85.4934196 53.4502828,84.9390638 C53.4502828,84.9388742 53.4502828,84.9386846 53.4502828,84.938495 C53.4504402,84.383733 53.9001246,83.934049 54.4548866,83.933892 Z" id="Rectangle-Copy-39" fill="#EF2221" transform="translate(57.015606, 84.937486) rotate(6.000000) translate(-57.015606, -84.937486) "></path>
            <path d="M49.756932,83.2126246 L50.5243473,83.2124075 C51.0787031,83.2122507 51.5282244,83.6615177 51.5283813,84.2158735 C51.5283813,84.2160631 51.5283813,84.2162527 51.5283813,84.2164422 C51.5282239,84.7712042 51.0785395,85.2208883 50.5237775,85.2210452 L49.7563622,85.2212624 C49.2020064,85.2214192 48.7524851,84.7721522 48.7523283,84.2177964 C48.7523282,84.2176068 48.7523282,84.2174172 48.7523283,84.2172276 C48.7524856,83.6624656 49.20217,83.2127816 49.756932,83.2126246 Z" id="Rectangle-Copy-47" fill="#EF2221" transform="translate(50.140355, 84.216835) rotate(6.000000) translate(-50.140355, -84.216835) "></path>
            <path d="M57.9579249,91.4688698 L63.0770087,91.4735325 C63.6321527,91.4740382 64.0820599,91.9239446 64.0825665,92.4790885 C64.083072,93.0329255 63.6345082,93.4823088 63.0806712,93.4828143 C63.0800617,93.4828149 63.0794521,93.4828149 63.0788426,93.4828143 L57.9597587,93.4781516 C57.4046148,93.477646 56.9547076,93.0277396 56.9542009,92.4725957 C56.9536954,91.9187587 57.4022593,91.4693753 57.9560962,91.4688698 C57.9567058,91.4688693 57.9573153,91.4688693 57.9579249,91.4688698 Z" id="Rectangle-Copy-39" fill="#EF2221" transform="translate(60.518384, 92.475842) rotate(-21.000000) translate(-60.518384, -92.475842) "></path>
            <path d="M53.6805698,93.9415513 L54.4464533,93.9422489 C55.0015972,93.9427545 55.4515044,94.3926609 55.4520111,94.9478048 C55.4525166,95.5016418 55.0039528,95.9510252 54.4501158,95.9515307 C54.4495063,95.9515312 54.4488967,95.9515312 54.4482871,95.9515307 L53.6824037,95.9508331 C53.1272597,95.9503274 52.6773525,95.500421 52.6768459,94.9452771 C52.6763404,94.3914401 53.1249042,93.9420568 53.6787412,93.9415513 C53.6793507,93.9415507 53.6799603,93.9415507 53.6805698,93.9415513 Z" id="Rectangle-Copy-47" fill="#EF2221" transform="translate(54.064428, 94.946541) rotate(-21.000000) translate(-54.064428, -94.946541) "></path>
            <rect id="Rectangle" fill="#EF2221" x="14.2837838" y="107.128378" width="32.6486486" height="2.04054054" rx="1.02027027"></rect>
            <path d="M17.2542022,0 C24.0206386,0 29.832301,2.48743662 34.6891892,7.46230985 L34.6891892,27.0827245 L34.6891892,27.0827245 C34.6891892,32.0931527 28.8775269,37.3493617 17.2542022,42.8513514 C5.75140073,37.4532047 -6.09722483e-14,32.1969958 -6.09722483e-14,27.0827245 L-6.09722483e-14,7.46230985 L-6.09722483e-14,7.46230985 C4.73636503,2.48743662 10.4877658,0 17.2542022,0 Z M17.3968702,2.325464 C11.4206199,2.325464 6.34086922,4.52380779 2.15761809,8.92049538 L2.15761809,8.92049538 L2.15761809,26.2606023 C2.15761809,30.7804869 7.2373688,35.425813 17.3968702,40.1965807 C27.6628201,35.3340387 32.795795,30.6887126 32.795795,26.2606023 L32.795795,26.2606023 L32.795795,8.92049538 C28.5060954,4.52380779 23.3731205,2.325464 17.3968702,2.325464 Z" id="Combined-Shape" fill="#EF2221"></path>
            <path d="M6.12162162,10.9504699 L12.6565388,7.24384959 C13.2745291,7.01548131 13.7600494,7.17074324 14.1130996,7.70963538 C14.3951355,8.14013198 14.3276476,8.58639424 13.9106358,9.04842216 L11.0043714,10.6783518 L8.09810696,12.3082814 L8.09810696,25.5067568 L6.12162162,25.5067568 L6.12162162,10.9504699 Z" id="Rectangle" fill="#EF2221"></path>
            <path d="M105.087838,60.1959459 L109.465928,62.1447142 L109.136147,63.2407757 L146.811984,77.0110135 C150.791574,78.4816082 151.935011,80.8940056 150.242296,84.2482057 C148.667872,87.3680073 146.168668,88.39917 142.744686,87.3416936 L106.164953,70.5356312" id="Path-35" stroke="#EF2221" stroke-width="2"></path>
            <polyline id="Path-36" stroke="#EF2221" stroke-width="2" points="107.128378 67.3378378 105.263463 71.4189189 101.006757 69.7477646"></polyline>
            <path d="M105.283533,58.521922 L100.049991,71.8504475 C99.0523455,71.8703368 98.052055,72.2075256 97.0491194,72.8620137 C96.2457833,73.3862487 95.3459559,74.3098892 94.3496372,75.6329351 L96.6604299,76.8641052 C98.3932477,78.6190428 98.7201084,80.3221649 97.6410119,81.9734714 C95.933638,84.5862108 92.5129135,83.3878551 92.5129135,83.3878551 C92.5129135,83.3878551 85.3672293,80.5360897 71.075861,74.8325589 C69.4833935,73.5188621 69.0113878,72.0543454 69.6598442,70.4390087 C70.4543531,68.4598479 71.8082564,67.578207 73.7215543,67.7940861 L75.8946727,68.562279 C76.3072419,67.1320609 76.414393,66.0166526 76.2161261,65.2160543 C75.8590002,63.7739865 75.1964563,62.6467286 74.2284943,61.8342806 L80.007397,48.444123 C81.48273,47.999701 82.8312972,47.3355605 84.0530985,46.4517016 C84.9513381,45.8019093 85.7228119,44.9323985 86.3675198,43.8431692 L84.0530985,42.7722847 C82.3267276,41.4964507 81.89421,39.8737518 82.7555455,37.9041883 C83.5814315,36.0156851 85.1534791,35.3459353 87.4716885,35.8949389 L109.521124,44.6334487 C111.32889,45.8456173 111.684922,47.4885797 110.58922,49.5623359 C109.676894,51.2890311 108.28706,52.0051978 106.419719,51.710836 L104.194092,50.7853024 C103.768849,52.4209624 103.660631,53.9802061 103.869437,55.4630334 C104.023778,56.5590793 104.495143,57.5787088 105.283533,58.521922 Z" id="Path-37" stroke="#EF2221" stroke-width="2"></path>
            <line x1="104.067568" y1="51.0135135" x2="86.722973" y2="43.8716216" id="Path-38" stroke="#EF2221" stroke-width="2"></line>
            <line x1="93.8648649" y1="75.5" x2="75.5" y2="68.3581081" id="Path-39" stroke="#EF2221" stroke-width="2"></line>
            <path d="M55.0945946,108.148649 L109.168919,108.148649 C108.193778,102.707207 104.397164,99.9864865 97.7790777,99.9864865" id="Path-40" stroke="#EF2221" stroke-width="2"></path>
            <path d="M89.7837838,99.9864865 C77.0714703,99.9864865 68.3401972,99.9864865 63.5899645,99.9864865 C60.1661224,99.9864865 57.3343325,102.707207 55.0945946,108.148649" id="Path-41" stroke="#EF2221" stroke-width="2"></path>
            <path d="M64.277027,99.9864865 C65.9691635,95.9054054 68.1710202,93.8648649 70.882597,93.8648649 C74.9499622,93.8648649 88.3733178,93.8648649 94.3116617,93.8648649 C96.4898174,93.8648649 98.3814257,95.9054054 99.9864865,99.9864865" id="Path-42" stroke="#EF2221" stroke-width="2"></path>
        </g>
    </g>
</svg>