<svg width="47" height="49" viewBox="0 0 47 49" fill="none" xmlns="http://www.w3.org/2000/svg">
<path d="M19.4371 42.1396C19.4371 42.1396 11.7496 36.8759 11.2008 31.566C11.0139 29.758 11.2008 26.2685 11.2008 23.4908C11.2008 19.8595 16.3856 13.9988 19.2512 12.9541" stroke="#EF2221"/>
<path d="M17.5463 9.54248C20.6492 16.8587 25.5464 22.8146 39.1009 26.2199" stroke="#EF2221"/>
<path d="M37.2907 25.8408C37.9568 30.0058 37.8746 34.8806 33.0505 40.244" stroke="#EF2221"/>
<path d="M41.748 26.3806C41.748 26.3806 41.748 20.3443 41.748 15.806C41.748 11.5751 37.7097 1.2041 24.6962 1.2041C11.6827 1.2041 7.00743 11.038 7.00743 15.806C7.00743 23.9564 7.00743 32.6638 7.00743 32.6638H3.82894C3.82894 32.6638 1.28583 32.6638 1.28583 30.9054C1.28583 27.829 1.28583 27.2528 1.28583 23.9564C1.28583 21.8773 3.82894 21.8773 3.82894 21.8773H6.39115" stroke="#EF2221"/>
<path d="M41.748 22.0508H43.958C43.958 22.0508 45.9076 22.2074 45.9076 24.1186C45.9076 26.0298 45.9076 31.0018 45.9076 31.0018C45.9076 31.0018 45.8669 32.6637 44.3744 32.6637C42.882 32.6637 41.748 32.6637 41.748 32.6637" stroke="#EF2221"/>
<path d="M41.748 29.6313V35.0348C41.748 35.0348 39.1441 44.6377 30.4035 45.1717" stroke="#EF2221"/>
<rect x="22.8405" y="42.8975" width="7.56302" height="4.92742" rx="2.46371" stroke="#EF2221"/>
</svg>
