<svg width="113" height="110" viewBox="0 0 113 110" fill="none" xmlns="http://www.w3.org/2000/svg">
<path fill-rule="evenodd" clip-rule="evenodd" d="M18.7772 108.982L99.1917 14.3467C102.839 10.5146 104 8.5153 104 5.51629C104 0.851154 95.3782 -1.48141 93.2228 1.01777L12.8083 95.6533C9.16062 99.4854 8 101.485 8 104.484C8 109.149 16.6218 111.481 18.7772 108.982ZM25.8333 52C40.6667 52 52 40.869 52 26.5815V25.0863C52 10.7987 41 0 26 0C11.1667 0 0 11.131 0 25.4185V26.9137C0 41.2013 11 52 25.8333 52ZM14 27.3176C14 34.5647 19.035 40 26.0839 40C33.1329 40 38 34.7294 38 27.3176V24.8471C38 17.4353 32.965 12 25.9161 12C18.8671 12 14 17.2706 14 24.8471V27.3176ZM87 110C101.833 110 113 98.869 113 84.5815V83.0863C113 68.7987 102 58 87.1667 58C72.3333 58 61 69.131 61 83.4185V84.9137C61 99.2013 72 110 87 110ZM75 85.3176C75 92.5647 80.035 98 87.0839 98C93.965 98 99 92.7294 99 85.3176V82.8471C99 75.4353 93.965 70 86.9161 70C79.8671 70 75 75.2706 75 82.8471V85.3176Z" fill="#EF2221"/>
</svg>
