<svg width="137" height="111" viewBox="0 0 137 111" fill="none" xmlns="http://www.w3.org/2000/svg">
<path fill-rule="evenodd" clip-rule="evenodd" d="M22.7929 18.2207C22.7929 23.1473 19.702 25.4151 12.5029 25.4151H4.28654C2.36939 25.4151 1.19563 24.7504 1.19563 22.7172V2.69791C1.19563 0.664703 2.36939 0 4.28654 0H12.9724C18.7238 0 21.8147 2.30691 21.8147 6.52973C21.8147 9.34494 20.2497 11.0653 17.2762 11.8864C21.0713 12.8249 22.7929 15.1709 22.7929 18.2207ZM6.94707 10.7134H11.7986C14.4983 10.7134 15.8677 9.46224 15.8677 7.42903C15.8677 5.35672 14.6548 4.34012 11.7986 4.34012H6.94707V10.7134ZM12.1507 21.1141H6.94707V14.3889H12.1507C15.6329 14.3889 16.8458 15.21 16.8458 17.6342C16.8458 20.0975 15.6329 21.1141 12.1507 21.1141ZM43.3337 20.6449C43.3337 22.4826 40.9079 25.8061 35.1565 25.8061C29.2094 25.8061 24.9056 21.6615 24.9056 15.7574C24.9056 9.89234 29.2877 5.70862 35.1565 5.70862C41.0253 5.70862 43.3337 9.11034 43.3337 10.9089C43.3337 13.1768 40.4776 13.9197 40.0863 12.9422C39.382 11.2608 37.9344 10.166 35.3913 10.166C32.3786 10.166 30.1484 12.473 30.1484 15.7574C30.1484 19.0027 32.3786 21.3878 35.3913 21.3878C37.817 21.3878 39.4212 20.2539 40.0863 18.5726C40.5558 17.3605 43.3337 18.2207 43.3337 20.6449ZM55.4235 25.8061C60.7837 25.8061 63.7572 23.4992 63.7572 21.466C63.7572 19.0809 61.8792 18.9245 61.1358 19.5501C59.9229 20.5667 58.2014 21.7006 55.6191 21.7006C52.6456 21.7006 50.5719 20.0584 50.1807 17.2041H63.3268C64.3441 17.2041 64.618 17.0477 64.6571 16.0702V15.0145C64.6571 9.65774 60.7445 5.66952 55.0713 5.66952C49.2808 5.66952 44.8596 10.0096 44.8596 15.8747C44.8596 21.9352 49.2025 25.8061 55.4235 25.8061ZM50.1807 13.9588H59.4925C59.3751 11.2999 57.6927 9.54044 54.9931 9.54044C52.4108 9.54044 50.5328 11.3781 50.1807 13.9588ZM72.9125 23.6556V10.4788H78.6249C80.1507 10.4788 80.8159 10.2442 81.0115 8.87574L81.1289 7.82003C81.2854 6.49063 80.6594 6.21693 79.1335 6.21693H69.8608L69.7825 6.2169C68.4119 6.21619 67.3567 6.21564 67.3567 8.21103V23.6556C67.3567 25.4755 68.3869 25.5674 69.7693 25.5713L70.4868 25.5715C71.8953 25.5715 72.9125 25.5324 72.9125 23.6556ZM84.4546 25.4151V29.5597C84.4546 31.2801 83.6329 31.4756 82.107 31.4756L81.4882 31.475C80.0154 31.4614 79.1726 31.2246 79.1726 29.5597V23.2255C79.1726 21.4269 80.0334 21.1141 81.7549 21.1141H81.9114C84.0242 17.4778 85.5501 14.428 85.5501 7.66363C85.5501 6.25603 86.2934 6.21693 87.2716 6.21693H99.244C100.261 6.21693 100.965 6.25603 100.965 7.66363V21.1141H101.513C103.235 21.1141 104.096 21.4269 104.096 23.2255V29.5597C104.096 31.2801 103.196 31.4756 101.631 31.4756L101.016 31.475C99.5831 31.4614 98.8136 31.2246 98.8136 29.5597V25.4151H84.4546ZM95.4488 21.1141H87.8193C89.6191 17.7906 90.519 14.7799 90.519 10.5179H95.4488V21.1141ZM118.533 22.5217C117.163 24.5158 114.738 25.7279 111.881 25.7279C107.852 25.7279 105.426 23.4601 105.426 20.1757C105.426 15.7965 109.377 13.7633 117.789 13.646H118.415C118.415 11.1826 117.046 9.85324 114.464 9.85324C112.077 9.85324 110.708 11.1826 109.69 12.2775C108.321 13.8024 106.247 12.121 106.247 10.4397C106.247 8.01553 109.769 5.66952 114.816 5.66952C120.88 5.66952 123.893 8.44563 123.893 13.0595V24.1639C123.893 25.1805 122.915 25.6106 121.819 25.6106C119.902 25.6106 118.533 24.985 118.533 22.9909V22.5217ZM113.72 22.1307C111.881 22.1307 110.747 21.2314 110.747 19.7847C110.747 17.7124 113.016 16.8522 117.398 16.7349L118.415 16.6958V17.7906C118.415 20.293 116.498 22.1307 113.72 22.1307ZM4.13003 65.4537H3.54315C3.4672 65.4537 3.39221 65.454 3.31831 65.4543C1.98357 65.4601 1 65.4643 1 63.5378V48.0932C1 46.0978 2.05514 46.0983 3.42577 46.0991L3.50403 46.0991L17.8923 46.0988C19.1627 46.102 19.9758 46.2037 19.9758 48.0932V63.5378C19.9758 65.4586 19.032 65.4566 17.7038 65.4539L17.5501 65.4537H16.9632C16.8872 65.4537 16.8122 65.454 16.7383 65.4543C15.4036 65.4601 14.42 65.4643 14.42 63.5378V50.4001H6.55581V63.5378C6.55581 65.4586 5.61197 65.4566 4.28375 65.4539L4.13003 65.4537ZM33.0437 65.6883C38.4039 65.6883 41.3774 63.3814 41.3774 61.3482C41.3774 58.963 39.4994 58.8066 38.756 59.4322C37.5432 60.4488 35.8216 61.5827 33.2394 61.5827C30.2658 61.5827 28.1922 59.9405 27.8009 57.0862H40.9471C41.9643 57.0862 42.2382 56.9298 42.2773 55.9523V54.8966C42.2773 49.5399 38.3648 45.5517 32.6916 45.5517C26.901 45.5517 22.4799 49.8918 22.4799 55.7568C22.4799 61.8174 26.8228 65.6883 33.0437 65.6883ZM27.8009 53.8409H37.1128C36.9954 51.1821 35.313 49.4226 32.6133 49.4226C30.0311 49.4226 28.153 51.2603 27.8009 53.8409ZM50.5328 71.045V62.3257C51.5501 64.2416 53.7802 65.8056 56.6755 65.8056C61.9965 65.8056 65.6743 61.7001 65.6743 55.7177C65.6743 49.579 61.9574 45.669 56.7537 45.669C53.8585 45.669 51.7066 47.0766 50.4545 49.2662C50.1415 46.5683 48.5374 45.9036 47.0898 45.9036C45.9942 45.9036 44.977 46.2164 44.977 47.0375V71.045C44.977 72.7495 45.9684 72.9863 47.382 72.9994L48.107 73C49.5155 73 50.5328 72.8045 50.5328 71.045ZM50.5328 56.226C50.5328 58.9239 52.6847 61.4264 55.3452 61.4264C58.3188 61.4264 60.3142 59.1194 60.3142 55.7959C60.3142 52.3942 58.2796 50.1264 55.3843 50.1264C53.0759 50.1264 50.5328 52.0423 50.5328 55.4831V56.226ZM78.1945 65.2973C85.1588 65.2973 86.6064 63.1468 86.6064 60.0187C86.6064 57.9073 84.6502 55.835 82.0288 55.3267C84.3372 54.7011 85.6283 52.9025 85.6283 51.1821C85.6283 47.8195 84.2198 46.0991 77.2163 46.0991H70.878C69.4695 46.0991 68.374 46.6856 68.374 48.4842V62.9904C68.374 64.8672 69.4695 65.2973 70.9171 65.2973H78.1945ZM73.9298 53.5281H77.4511C79.0552 53.5281 80.0334 52.9416 80.0334 51.6122C80.0334 50.2828 79.0552 49.7354 77.4511 49.7354H73.9298V53.5281ZM78.0771 61.6219H73.9298V57.5554H78.0771C80.0334 57.5554 81.0115 58.181 81.0115 59.5886C81.0115 60.9963 80.0334 61.6219 78.0771 61.6219ZM98.2658 65.2973H91.8493C91.7733 65.2973 91.6983 65.2976 91.6244 65.2979C90.2897 65.3037 89.3061 65.3079 89.3061 63.3814V47.8977C89.3061 45.9023 90.3612 45.9028 91.7319 45.9036L91.8101 45.9036L92.7784 45.9033C94.0488 45.9065 94.8619 46.0082 94.8619 47.8977V52.2769H98.1484C104.252 52.2769 106.873 54.8184 106.873 58.8066C106.873 62.7558 104.174 65.2973 98.2658 65.2973ZM111.686 65.3364H112.273L112.426 65.3366C113.755 65.3393 114.699 65.3413 114.699 63.4205V47.8977C114.699 46.0082 113.885 45.9065 112.615 45.9033L111.647 45.9036L111.568 45.9036C110.198 45.9028 109.143 45.9023 109.143 47.8977V63.4205C109.143 65.347 110.126 65.3428 111.461 65.337L111.533 65.3367C111.565 65.3366 111.597 65.3365 111.628 65.3364C111.648 65.3364 111.667 65.3364 111.686 65.3364ZM94.8619 56.226V61.3873L94.901 61.3091H98.1484C99.6743 61.3091 100.926 60.6834 100.926 58.7675C100.926 56.8516 99.6743 56.226 98.1484 56.226H94.8619ZM127.766 65.6883C133.127 65.6883 136.1 63.3814 136.1 61.3482C136.1 58.963 134.222 58.8066 133.479 59.4322C132.266 60.4488 130.544 61.5827 127.962 61.5827C124.988 61.5827 122.915 59.9405 122.524 57.0862H135.67C136.687 57.0862 136.961 56.9298 137 55.9523V54.8966C137 49.5399 133.087 45.5517 127.414 45.5517C121.624 45.5517 117.203 49.8918 117.203 55.7568C117.203 61.8174 121.545 65.6883 127.766 65.6883ZM122.524 53.8409H131.835C131.718 51.1821 130.036 49.4226 127.336 49.4226C124.754 49.4226 122.876 51.2603 122.524 53.8409Z" fill="black"/>
<path fill-rule="evenodd" clip-rule="evenodd" d="M108.657 85.5603C113.132 85.5603 115.095 83.4148 115.095 81.0777C115.095 78.779 111.287 78.4725 111.287 79.8134C111.287 81.231 110.502 81.9589 109.128 81.9589H108.186C106.695 81.9589 106.027 81.231 106.027 79.8134C106.027 78.4341 102.22 78.779 102.22 81.0777C102.22 83.4148 104.104 85.5603 108.657 85.5603ZM19.3526 85.6753L9.10712 103.912C8.40053 105.176 7.69395 105.33 6.00599 105.33C4.12176 105.33 2.66933 104.18 3.49368 102.763L13.8177 85.0623H2.59082C0.902861 85.0623 0 84.7941 0 83.2232V81.9589C0 80.4264 0.902861 80.1582 2.59082 80.1582H17.1936C19.5489 80.1582 20.0592 80.618 20.0592 82.342V83.3382C20.0592 84.1044 19.7844 84.909 19.3526 85.6753ZM32.7385 105.062V109.123C32.7385 110.808 31.9142 111 30.3832 111L29.7623 110.999C28.2847 110.986 27.4391 110.754 27.4391 109.123V102.916C27.4391 101.154 28.3027 100.847 30.0299 100.847H30.187C32.3067 97.284 33.8377 94.2956 33.8377 87.6675C33.8377 86.2883 34.5835 86.2499 35.5649 86.2499H47.5768C48.5975 86.2499 49.3041 86.2883 49.3041 87.6675V100.847H49.8536C51.5808 100.847 52.4444 101.154 52.4444 102.916V109.123C52.4444 110.808 51.5416 111 49.9714 111L49.3544 110.999C47.9171 110.986 47.145 110.754 47.145 109.123V105.062H32.7385ZM43.7691 100.847H36.1144C37.9202 97.5905 38.823 94.6404 38.823 90.4644H43.7691V100.847ZM57.5083 105.215H56.9195C56.8436 105.215 56.7686 105.215 56.6947 105.215L56.6939 105.215C55.3548 105.221 54.3679 105.225 54.3679 103.337V88.0123C54.3679 86.0571 55.4266 86.0577 56.8017 86.0584L56.8802 86.0584L57.8517 86.0581C59.1263 86.0613 59.9421 86.1609 59.9421 88.0123V93.4144H68.0679V88.0123C68.0679 86.0571 69.1265 86.0577 70.5016 86.0584L70.5802 86.0584L71.5516 86.0581C72.8262 86.0613 73.6421 86.1609 73.6421 88.0123V103.337C73.6421 105.22 72.6951 105.218 71.3625 105.215L71.2083 105.215H70.6194L70.4976 105.215L70.3947 105.215L70.3938 105.215C69.0547 105.221 68.0679 105.225 68.0679 103.337V97.6672H59.9421V103.337C59.9421 105.22 58.9951 105.218 57.6625 105.215L57.5083 105.215ZM86.7532 105.445C92.1311 105.445 95.1144 103.184 95.1144 101.192C95.1144 98.8549 93.2302 98.7016 92.4844 99.3146C91.2675 100.311 89.5403 101.422 86.9494 101.422C83.9661 101.422 81.8856 99.8127 81.493 97.0158H94.6826C95.7033 97.0158 95.978 96.8626 96.0173 95.9048V94.8703C96.0173 89.6215 92.0918 85.7136 86.3999 85.7136C80.5902 85.7136 76.1544 89.9663 76.1544 95.7132C76.1544 101.652 80.5116 105.445 86.7532 105.445ZM81.493 93.8359H90.8357C90.7179 91.2306 89.0299 89.5065 86.3214 89.5065C83.7305 89.5065 81.8463 91.3072 81.493 93.8359ZM112.426 94.4872L104.222 104.027C103.286 105.116 102.713 105.207 102.171 105.214L101.299 105.214C99.9144 105.204 98.8829 105.008 98.8829 103.337V87.9357C98.8829 86.2499 99.9035 86.0584 101.317 86.0584H101.906C103.358 86.0584 104.457 86.2499 104.457 87.9357V96.786L112.661 87.2461C113.643 86.0967 114.232 86.0584 114.86 86.0584H115.448C116.901 86.0584 118 86.0584 118 87.9357V103.337C118 105.062 116.979 105.215 115.566 105.215L114.842 105.214C113.457 105.204 112.426 105.008 112.426 103.337V94.4872Z" fill="#EF2221"/>
</svg>
