<svg width="28" height="28" viewBox="0 0 28 28" fill="none" xmlns="http://www.w3.org/2000/svg">
<path d="M16.5565 26.0382V16.1104H25.3826C27.3304 16.1104 28 15.8726 28 14.5053V12.9597C28 11.6412 27.3774 11.373 25.5864 11.3555L16.5565 11.3546V1.96178C16.5565 0.118896 15.5826 0 14.2435 0H13.7565C12.3565 0 11.4435 0.118896 11.4435 1.96178V11.3546H2.61739C0.669565 11.3546 0 11.5924 0 12.9597V14.5053C0 15.8726 0.669565 16.1104 2.61739 16.1104H11.4435V26.0382C11.4435 27.8153 12.2925 27.9893 13.6084 27.9995L14.2435 28C15.5826 28 16.5565 27.8811 16.5565 26.0382Z" fill="#EF2221"/>
</svg>
